<?xml version="1.0" encoding="UTF-8"?>
<svg xmlns="http://www.w3.org/2000/svg" xmlns:xlink="http://www.w3.org/1999/xlink" viewBox="0 0 32.4741940146 284.5536">
  <defs>
    <style>
      .cls-1, .cls-2 {
        fill: #fff;
      }

      .cls-3 {
        fill: url(#_Áåçûìÿííûé_ãðàäèåíò_192);
      }

      .cls-3, .cls-4, .cls-2, .cls-5, .cls-6, .cls-7, .cls-8, .cls-9, .cls-10, .cls-11, .cls-12, .cls-13 {
        fill-rule: evenodd;
      }

      .cls-4 {
        fill: url(#_Áåçûìÿííûé_ãðàäèåíò_210);
      }

      .cls-4, .cls-5, .cls-6, .cls-9, .cls-10, .cls-12, .cls-14 {
        mix-blend-mode: screen;
      }

      .cls-4, .cls-5, .cls-8, .cls-15, .cls-11, .cls-13 {
        opacity: .5;
      }

      .cls-16 {
        isolation: isolate;
      }

      .cls-17 {
        fill: url(#_Áåçûìÿííûé_ãðàäèåíò_192-6);
      }

      .cls-5 {
        fill: url(#_Áåçûìÿííûé_ãðàäèåíò_210-2);
      }

      .cls-18 {
        fill: url(#_Áåçûìÿííûé_ãðàäèåíò_192-3);
      }

      .cls-19, .cls-10, .cls-14 {
        fill: #fffdeb;
      }

      .cls-6 {
        fill: url(#_Áåçûìÿííûé_ãðàäèåíò_4678);
      }

      .cls-7 {
        fill: url(#_Áåçûìÿííûé_ãðàäèåíò_192-2);
      }

      .cls-8 {
        fill: url(#_Áåçûìÿííûé_ãðàäèåíò_253-2);
      }

      .cls-8, .cls-15, .cls-11, .cls-13 {
        mix-blend-mode: multiply;
      }

      .cls-9 {
        fill: url(#_Áåçûìÿííûé_ãðàäèåíò_100);
      }

      .cls-20 {
        fill: url(#_Áåçûìÿííûé_ãðàäèåíò_239-2);
      }

      .cls-21 {
        fill: url(#_Áåçûìÿííûé_ãðàäèåíò_192-4);
      }

      .cls-15, .cls-11 {
        fill: #3b9900;
      }

      .cls-10, .cls-14 {
        opacity: .4;
      }

      .cls-22 {
        fill: url(#_Áåçûìÿííûé_ãðàäèåíò_239);
      }

      .cls-23 {
        fill: url(#_Áåçûìÿííûé_ãðàäèåíò_192-5);
      }

      .cls-24 {
        fill: url(#_Áåçûìÿííûé_ãðàäèåíò_239-3);
      }

      .cls-12 {
        fill: url(#_Áåçûìÿííûé_ãðàäèåíò_4725);
      }

      .cls-25 {
        fill: url(#_Áåçûìÿííûé_ãðàäèåíò_237);
      }

      .cls-13 {
        fill: url(#_Áåçûìÿííûé_ãðàäèåíò_253);
      }
    </style>
    <radialGradient id="_Áåçûìÿííûé_ãðàäèåíò_192" data-name="Áåçûìÿííûé ãðàäèåíò 192" cx="228.6609240282" cy="246.8619307905" fx="228.6609240282" fy="246.8619307905" r="28.7968649776" gradientTransform="translate(252.3915685784) rotate(-180) scale(1 -1)" gradientUnits="userSpaceOnUse">
      <stop offset="0" stop-color="#a4ce02"/>
      <stop offset=".0062293891" stop-color="#a2cd01"/>
      <stop offset=".891061" stop-color="#009800"/>
    </radialGradient>
    <radialGradient id="_Áåçûìÿííûé_ãðàäèåíò_210" data-name="Áåçûìÿííûé ãðàäèåíò 210" cx="220.433948354" cy="285.682891443" fx="220.433948354" fy="285.682891443" r="27.1656182529" gradientTransform="translate(252.3915685784) rotate(-180) scale(1 -1)" gradientUnits="userSpaceOnUse">
      <stop offset="0" stop-color="#ff0"/>
      <stop offset=".0229713528" stop-color="#f5f500"/>
      <stop offset=".1835868772" stop-color="#b5b500"/>
      <stop offset=".3421330292" stop-color="#7d7d00"/>
      <stop offset=".4946154797" stop-color="#505000"/>
      <stop offset=".639955792" stop-color="#2d2d00"/>
      <stop offset=".7762103808" stop-color="#141400"/>
      <stop offset=".8999404273" stop-color="#050500"/>
      <stop offset="1" stop-color="#000"/>
    </radialGradient>
    <radialGradient id="_Áåçûìÿííûé_ãðàäèåíò_253" data-name="Áåçûìÿííûé ãðàäèåíò 253" cx="225.9407721622" cy="262.708083432" fx="225.9407721622" fy="262.708083432" r="23.2351323865" gradientTransform="translate(252.3915685784) rotate(-180) scale(1 -1)" gradientUnits="userSpaceOnUse">
      <stop offset="0" stop-color="#fefefe"/>
      <stop offset=".0915040519" stop-color="#f9fbf7"/>
      <stop offset=".2177479392" stop-color="#ebf4e5"/>
      <stop offset=".3641620359" stop-color="#d5e8c8"/>
      <stop offset=".5258947153" stop-color="#b5d89f"/>
      <stop offset=".7001148066" stop-color="#8dc36b"/>
      <stop offset=".8819315218" stop-color="#5daa2c"/>
      <stop offset="1" stop-color="#3b9900"/>
    </radialGradient>
    <radialGradient id="_Áåçûìÿííûé_ãðàäèåíò_192-2" data-name="Áåçûìÿííûé ãðàäèåíò 192" cx="8.7436055202" fx="8.7436055202" r="28.7968709988" gradientTransform="matrix(1,0,0,1,0,0)" xlink:href="#_Áåçûìÿííûé_ãðàäèåíò_192"/>
    <radialGradient id="_Áåçûìÿííûé_ãðàäèåíò_210-2" data-name="Áåçûìÿííûé ãðàäèåíò 210" cx=".516577102" fx=".516577102" r="27.1657914516" gradientTransform="matrix(1,0,0,1,0,0)" xlink:href="#_Áåçûìÿííûé_ãðàäèåíò_210"/>
    <radialGradient id="_Áåçûìÿííûé_ãðàäèåíò_253-2" data-name="Áåçûìÿííûé ãðàäèåíò 253" cx="6.0233924334" fx="6.0233924334" gradientTransform="matrix(1,0,0,1,0,0)" xlink:href="#_Áåçûìÿííûé_ãðàäèåíò_253"/>
    <radialGradient id="_Áåçûìÿííûé_ãðàäèåíò_237" data-name="Áåçûìÿííûé ãðàäèåíò 237" cx="1107.878199665" cy="1108.4437596727" fx="1107.878199665" fy="1108.4437596727" r="80.5536302568" gradientTransform="translate(-1090.1458013279 1261.3230699063) rotate(-90)" gradientUnits="userSpaceOnUse">
      <stop offset=".022346" stop-color="#ec782a"/>
      <stop offset=".994413" stop-color="#9f1d36"/>
    </radialGradient>
    <radialGradient id="_Áåçûìÿííûé_ãðàäèåíò_192-3" data-name="Áåçûìÿííûé ãðàäèåíò 192" cx="16.561746712" cy="196.047578784" fx="16.561746712" fy="196.047578784" r="31.5337284895" gradientTransform="matrix(1,0,0,1,0,0)" xlink:href="#_Áåçûìÿííûé_ãðàäèåíò_192"/>
    <radialGradient id="_Áåçûìÿííûé_ãðàäèåíò_192-4" data-name="Áåçûìÿííûé ãðàäèåíò 192" cx="16.3986055195" cy="122.4574589668" fx="16.3986055195" fy="122.4574589668" r="31.0338118749" gradientTransform="matrix(1,0,0,1,0,0)" xlink:href="#_Áåçûìÿííûé_ãðàäèåíò_192"/>
    <radialGradient id="_Áåçûìÿííûé_ãðàäèåíò_192-5" data-name="Áåçûìÿííûé ãðàäèåíò 192" cx="15.6475136034" cy="85.1082554027" fx="15.6475136034" fy="85.1082554027" r="12.6116593159" gradientTransform="matrix(1,0,0,1,0,0)" xlink:href="#_Áåçûìÿííûé_ãðàäèåíò_192"/>
    <linearGradient id="_Áåçûìÿííûé_ãðàäèåíò_239" data-name="Áåçûìÿííûé ãðàäèåíò 239" x1="-2.556639541" y1="213.0213822899" x2="33.6658508944" y2="243.194183589" gradientUnits="userSpaceOnUse">
      <stop offset=".0263146" stop-color="#634d5f"/>
      <stop offset=".439155849" stop-color="#4d354d"/>
      <stop offset=".994413" stop-color="#2a1032"/>
    </linearGradient>
    <linearGradient id="_Áåçûìÿííûé_ãðàäèåíò_239-2" data-name="Áåçûìÿííûé ãðàäèåíò 239" x1="-4.4229884557" y1="215.2604911186" x2="31.8010305513" y2="245.4345656953" xlink:href="#_Áåçûìÿííûé_ãðàäèåíò_239"/>
    <linearGradient id="_Áåçûìÿííûé_ãðàäèåíò_239-3" data-name="Áåçûìÿííûé ãðàäèåíò 239" x1="-13.0151384919" y1="225.575606624" x2="23.2085149317" y2="255.7493766752" xlink:href="#_Áåçûìÿííûé_ãðàäèåíò_239"/>
    <radialGradient id="_Áåçûìÿííûé_ãðàäèåíò_192-6" data-name="Áåçûìÿííûé ãðàäèåíò 192" cx="1223.2908699063" cy="1106.4549957509" fx="1223.2908699063" fy="1106.4549957509" r="27.1136112607" gradientTransform="translate(-1090.1458013279 1261.3230699063) rotate(-90)" xlink:href="#_Áåçûìÿííûé_ãðàäèåíò_192"/>
    <radialGradient id="_Áåçûìÿííûé_ãðàäèåíò_4725" data-name="Áåçûìÿííûé ãðàäèåíò 4725" cx="1221.5019199063" cy="1106.769645743" fx="1221.5019199063" fy="1106.769645743" r="4.6596999414" gradientTransform="translate(-1090.1458013279 1261.3230699063) rotate(-90)" gradientUnits="userSpaceOnUse">
      <stop offset="0" stop-color="#19a737"/>
      <stop offset=".0569110965" stop-color="#169531"/>
      <stop offset=".2168414028" stop-color="#0f6722"/>
      <stop offset=".3777342965" stop-color="#094215"/>
      <stop offset=".5372850674" stop-color="#05250c"/>
      <stop offset=".695059154" stop-color="#021005"/>
      <stop offset=".8502731134" stop-color="#000401"/>
      <stop offset="1" stop-color="#000"/>
    </radialGradient>
    <radialGradient id="_Áåçûìÿííûé_ãðàäèåíò_4678" data-name="Áåçûìÿííûé ãðàäèåíò 4678" cx="1221.5019199063" cy="1106.769695743" fx="1221.5019199063" fy="1106.769695743" r="1.9268249758" gradientTransform="translate(-1090.1458013279 1261.3230699063) rotate(-90)" gradientUnits="userSpaceOnUse">
      <stop offset=".592179" stop-color="#57934a"/>
      <stop offset=".6596963954" stop-color="#3d6734"/>
      <stop offset=".729014276" stop-color="#274221"/>
      <stop offset=".7984856183" stop-color="#162512"/>
      <stop offset=".867198673" stop-color="#091008"/>
      <stop offset=".9347801507" stop-color="#020402"/>
      <stop offset="1" stop-color="#000"/>
    </radialGradient>
    <radialGradient id="_Áåçûìÿííûé_ãðàäèåíò_100" data-name="Áåçûìÿííûé ãðàäèåíò 100" cx="1221.5019199063" cy="1106.769645743" fx="1221.5019199063" fy="1106.769645743" r="1.0206499871" gradientTransform="translate(-1090.1458013279 1261.3230699063) rotate(-90)" gradientUnits="userSpaceOnUse">
      <stop offset=".837989" stop-color="#fff"/>
      <stop offset=".8558378607" stop-color="#cbcbcb"/>
      <stop offset=".8767111468" stop-color="#959595"/>
      <stop offset=".8978655579" stop-color="#686868"/>
      <stop offset=".9188595256" stop-color="#424242"/>
      <stop offset=".9396712159" stop-color="#252525"/>
      <stop offset=".9602456732" stop-color="#101010"/>
      <stop offset=".980485203" stop-color="#040404"/>
      <stop offset="1" stop-color="#000"/>
    </radialGradient>
  </defs>
  <g class="cls-16">
    <g id="Layer_2" data-name="Layer 2">
      <g id="_0" data-name="0">
        <g>
          <g>
            <polygon class="cls-2" points="32.4741940146 284.5536 25.1016942009 243.5489 17.0152944051 238.2529 24.473 243.9104 32.4741940146 284.5536"/>
            <polygon class="cls-3" points="24.7522942097 243.6541 32.4741940146 284.5536 17.1465944018 273.6335 16.81 238.1151 24.7522942097 243.6541"/>
            <polygon class="cls-4" points="24.7522942097 243.6541 32.4741940146 284.5536 17.1465944018 273.6335 16.81 238.1151 24.7522942097 243.6541"/>
            <polygon class="cls-13" points="18.0336943794 242.8233 23.037594253 247.3921 28.1502941238 277.5243 19.9917943299 272.738 18.0336943794 242.8233"/>
            <polygon class="cls-10" points="24.7522942097 243.6541 21.57349429 252.2051 32.4741940146 284.5536 24.7522942097 243.6541"/>
            <path class="cls-10" d="m28.8302941067,265.2534c-.2245999943,1.7235-.6010999848,3.4167-1.1565999708,5.0542l-.9995999747-2.9662c.7772999804-2.1369,1.1787999702-4.457,1.267799968-6.7933l.8883999776,4.7053Z"/>
            <path class="cls-10" d="m26.3800941686,252.2759c-.0977999975,2.9081-.8157999794,5.8062-1.9091999518,8.5273l-.9469999761-2.8103c1.2758999678-3.2997,1.7547999557-7.0751,1.9184999515-10.6835l.9376999763,4.9665Z"/>
            <polygon class="cls-11" points="21.5902942896 252.2541 16.8772944086 247.2045 17.1465944018 273.6335 28.2578941211 272.2646 21.5902942896 252.2541"/>
            <polygon class="cls-2" points="23.0954942515 247.9535 21.5902942896 252.2541 23.4925942415 257.8298 23.0954942515 247.9535"/>
            <polygon class="cls-2" points="24.7522942097 243.6541 24.3196942206 244.7937 25.808594183 249.1611 24.7522942097 243.6541"/>
          </g>
          <g>
            <polygon class="cls-2" points="0 284.5536 7.3725946487 243.5489 15.459 238.2529 8.0011946329 243.9104 0 284.5536"/>
            <polygon class="cls-7" points="7.722 243.6541 0 284.5536 15.3276944478 273.6335 15.6642944393 238.1151 7.722 243.6541"/>
            <polygon class="cls-5" points="7.722 243.6541 0 284.5536 15.3276944478 273.6335 15.6642944393 238.1151 7.722 243.6541"/>
            <polygon class="cls-8" points="14.4404944702 242.8233 9.4365945966 247.3921 4.3238947258 277.5243 12.4824945196 272.738 14.4404944702 242.8233"/>
            <polygon class="cls-10" points="7.722 243.6541 10.9007945596 252.2051 0 284.5536 7.722 243.6541"/>
            <path class="cls-10" d="m3.644,265.2534c.2245947373,1.7235.6010947277,3.4167,1.1565947137,5.0542l.9994999748-2.9662c-.7771999804-2.1369-1.1786999702-4.457-1.267699968-6.7933l-.8883947205,4.7053Z"/>
            <path class="cls-10" d="m6.094194681,252.2759c.097805319,2.9081.815805319,5.8062,1.9091999518,8.5273l.9469999761-2.8103c-1.2759999678-3.2997-1.7548999557-7.0751-1.9184999515-10.6835l-.9376999763,4.9665Z"/>
            <polygon class="cls-11" points="10.884 252.2541 15.597 247.2045 15.3276944478 273.6335 4.2163947285 272.2646 10.884 252.2541"/>
            <polygon class="cls-2" points="9.3787945981 247.9535 10.884 252.2541 8.9816946081 257.8298 9.3787945981 247.9535"/>
            <polygon class="cls-2" points="7.722 243.6541 8.154594629 244.7937 6.6656946666 249.1611 7.722 243.6541"/>
          </g>
          <rect class="cls-25" x="15.4405944449" y="11.0543" width="1.7041999569" height="253.3879"/>
          <g>
            <path class="cls-18" d="m17.1872944008,237.9825c0-.3263-.1631999959-20.2332-.5982944008-23.279-.4352055731-3.0459-1.2782055518-14.7398-1.2782055518-15.0662,0-.3263,1.9606999505-24.9423,1.8518999532-26.4652,0,0,.1749999956.8166.1554999961.875-.0193999995.0583-.077699998,1.0888-.077699998,1.0888,0,0-1.2249999691,17.5384-1.2832999676,17.9856-.0583999985.4472-.3694999907,6.4749-.3694999907,6.6693s.5444999862,8.322.5833999853,9.0997c.038799999.7778.5614999858,5.2998.7169999819,5.6498.1555999961.35.2991999924,23.4422.2991999924,23.4422Z"/>
            <path class="cls-21" d="m15.398294446,163.2928s.7282999816-11.7752.849705554-12.9891c.1213944215-1.2139.7890944046-18.2089.7890944046-18.2089,0,0-.8497999785-2.1851-1.0317999739-3.399-.1820999954-1.214,1.1531999709-24.2786,1.1531999709-24.2786l-.0606999985-16.5702-.1820999954,16.2667s-1.2745999678,24.1572-1.2745999678,24.5214c0,.3641,1.1531999709,3.4597,1.1531999709,3.4597l-.910399977,17.8447-.4855999877,13.3533Z"/>
            <path class="cls-23" d="m15.439094445,86.1371l1.6840999575-10.0727-.5434999863-1.8522s-.2523999936,2.7467-.3016944161,3.8323c-.049405575,1.0856-.838905555,8.0926-.838905555,8.0926Z"/>
          </g>
          <g>
            <path class="cls-1" d="m15.6143944405,196.3029l-.2649999933,3.1138s.278299993,1.9742.278299993,1.908c0-.0663-.040199999-1.4645-.039999999-1.5339s.0266999993-3.4879.0266999993-3.4879Z"/>
            <path class="cls-1" d="m15.8673944341,129.3051s-.159799996-.5235-.1930999951-.5968c-.0331999992-.0732.473899988-7.6351.473899988-7.6351l-.263194427,7.4245.5966944186,2.5626-.6142999845-1.7552Z"/>
          </g>
          <rect class="cls-22" x="15.4405944449" y="227.866" width="1.7041999569" height="1.7132"/>
          <rect class="cls-20" x="15.4405944449" y="231.6189" width="1.7041999569" height="1.7949"/>
          <rect class="cls-24" x="15.4405944449" y="235.535" width="1.7041999569" height="28.9072"/>
          <polygon class="cls-17" points="16.308594423 0 11.4257945463 42.3795 15.3801944464 74.8782 17.1231944024 76.0644 21.1925942996 42.3795 16.309694423 0 16.309694423 .0334 16.308594423 0"/>
          <polygon class="cls-15" points="15.3801944464 74.8782 17.4821943933 41.1015 21.3166942965 42.6516 17.1231944024 76.0644 15.3801944464 74.8782"/>
          <polygon class="cls-14" points="11.4257945463 42.3795 17.4821943933 41.1015 16.309694423 .0334 11.4257945463 42.3795"/>
          <polygon class="cls-19" points="15.0742944542 41.6314 17.4821943933 41.1015 17.3494943967 37.2605 15.0742944542 41.6314"/>
          <polygon class="cls-19" points="15.3436944474 8.3104 16.309694423 .0334 16.3316944224 2.1732 15.3436944474 8.3104"/>
          <g>
            <path class="cls-12" d="m16.623894415,35.1615c2.573399935,0,4.6596998823,2.0861,4.6596998823,4.6597,0,2.5734-2.0862999473,4.6596-4.6596998823,4.6596-2.573499935,0-4.6597998823-2.0862-4.6597998823-4.6596,0-2.5736,2.0862999473-4.6597,4.6597998823-4.6597Z"/>
            <path class="cls-6" d="m16.623894415,37.8943c1.064105585,0,1.9267999513.8627,1.9267999513,1.9269,0,1.0641-.8626943664,1.9268-1.9267999513,1.9268-1.0641999731,0-1.9267999513-.8627-1.9267999513-1.9268,0-1.0642.8625999782-1.9269,1.9267999513-1.9269Z"/>
            <path class="cls-9" d="m16.623894415,38.8005c.5635999858,0,1.0205999742.457,1.0205999742,1.0207,0,.5636-.4569999885,1.0206-1.0205999742,1.0206-.5636999858,0-1.0206999742-.457-1.0206999742-1.0206,0-.5637.4569999885-1.0207,1.0206999742-1.0207Z"/>
          </g>
        </g>
      </g>
    </g>
  </g>
</svg>