<?xml version="1.0" encoding="UTF-8"?>
<svg id="Layer_2" data-name="Layer 2" xmlns="http://www.w3.org/2000/svg" viewBox="0 0 77.9893401166 124.0222997957">
  <defs>
    <style>
      .cls-1 {
        stroke-width: 5.07644px;
      }

      .cls-1, .cls-2 {
        fill: none;
        stroke: #fff200;
        stroke-linecap: round;
        stroke-linejoin: round;
      }

      .cls-2 {
        stroke-width: 7.61467px;
      }

      .cls-3 {
        fill: #fff200;
      }
    </style>
  </defs>
  <g id="Objects">
    <g>
      <circle class="cls-2" cx="31.3315024275" cy="31.33146" r="27.5241842746" transform="translate(-12.4996431802 37.8240792565) rotate(-53.4257997434)"/>
      <circle class="cls-1" cx="31.1407001399" cy="30.63741" r="14.3832220298" transform="translate(-5.8657880428 53.8519297903) rotate(-76.6336737801)"/>
      <path class="cls-3" d="m70.6640241414,57.383035h0c-2.6951999319.042-4.9924998739,1.6514-6.055499847,3.9432l-.0040999999-.2605c-.0586999985-3.7702-3.0971999218-6.9186-6.8675998265-6.8796-2.7108999315.0281-5.0238998731,1.6416-6.0916998461,3.9436l-.0039999999-.2585c-.0569999986-3.6588-2.917789622-6.7633-6.5751998339-6.8784-3.9049999014-.123-7.0778998212,3.0364-7.0177998227,6.8981l-.4518999886-29.0265c-.0569999986-3.6588-2.9177999263-6.7633-6.5751998339-6.8785-3.9049999014-.123-7.0779998212,3.0365-7.0177998227,6.8982l.8821096798,56.6505-4.673309584-15.8747c-1.0953999723-3.7211-5.1648998695-6.7162-9.0434997715-6.6558h0c-3.600399909,1.0599-5.659999857,4.8378-4.5999998838,8.4383l8.2360997919,27.3503c1.3167094474,4.3727,3.1397094474,8.5766,5.4317998628,12.5263l3.8963999016,6.7144c2.1848999448,3.7651,6.2342998425,6.0552,10.5867997326,5.9874l27.0262993173-.4208c4.5962998839-.0716,8.749499779-2.7575,10.7002997297-6.9199h0c3.7814999045-8.0686,5.6747998566-16.8928,5.5359998601-25.8025l-.4172999895-26.8054c-.0584999985-3.7528-3.1480999205-6.7476-6.9008998257-6.6892Z"/>
    </g>
  </g>
</svg>