<svg xmlns="http://www.w3.org/2000/svg" version="1.1" xmlns:xlink="http://www.w3.org/1999/xlink" width="512" height="512" x="0" y="0" viewBox="0 0 512 512" style="enable-background:new 0 0 512 512" xml:space="preserve"><g transform="matrix(0.7799999999999999,0,0,0.7799999999999999,56.32014697074891,82.68839721679691)"><path d="M235.215 34.71v11.142c15.46-1.047 23.738.207 24.597.347a15.274 15.274 0 0 1 11.368 8.59l21.726 46.305a15.22 15.22 0 0 1 7.203 3.93c2.621 2.554 5.758 4.554 9.313 5.421 7.098 1.73 14.14-.242 19.117-5.082 5.137-4.992 12.973-6.261 19.027-2.433 8.657 5.468 9.586 17.054 2.797 23.843-9.578 9.582-22.316 14.86-35.867 14.86a52.6 52.6 0 0 1-2.605-.067l29.207 62.254a197.355 197.355 0 0 1 3.511 7.926c32.887-10.371 70.293-2.668 96.43 23.172 5.844 5.773 6.492 15.203 1.031 21.344a15.25 15.25 0 0 1-11.441 5.144c-3.91 0-7.824-1.492-10.805-4.476-17.715-17.711-43.148-23.098-65.57-16.188 8.504 33.906 7.937 68.899-.84 101.711a173.283 173.283 0 0 0 12.613 3.649 31.432 31.432 0 0 0 15.11.015C457.57 327.211 512 258.473 512 178.836V34.71c0-7.137-4.406-13.535-11.086-16.047C479.864 10.754 439.18 0 373.614 0 308.042 0 267.354 10.758 246.3 18.668c-6.68 2.508-11.086 8.906-11.086 16.043zm168.972 70.45c5.97-5.969 15.645-5.969 21.618 0a20.016 20.016 0 0 0 14.246 5.903 20.025 20.025 0 0 0 14.25-5.903c5.969-5.972 15.648-5.972 21.617 0 5.969 5.969 5.969 15.645 0 21.613-9.582 9.582-22.316 14.86-35.867 14.86-13.547 0-26.285-5.278-35.867-14.86-5.965-5.968-5.965-15.644.003-21.613zm0 0" fill="#ffd700" opacity="1" data-original="#000000"></path><path d="M313.426 216.805 251.883 85.633c-2.832-6.04-9.106-9.676-15.758-9.172-22.223 1.68-63.906 9.05-123.945 37.219-59.364 27.851-91.63 54.87-107.328 70.972-4.98 5.11-6.254 12.774-3.223 19.235l61.215 130.48c33.824 72.094 112.304 111.207 189.535 95.856a31.288 31.288 0 0 0 13.617-6.391c61.172-49.578 81.254-134.93 47.43-207.027zm-123.68-9.778c9.504-26.304 38.637-39.976 64.941-30.468 7.938 2.867 12.047 11.629 9.18 19.57-2.867 7.937-11.629 12.05-19.57 9.18-10.45-3.774-22.024 1.656-25.8 12.105-2.25 6.227-8.118 10.098-14.376 10.098-1.726 0-3.48-.293-5.195-.914-7.938-2.871-12.051-11.633-9.18-19.57zm-59.113 51.61a20.02 20.02 0 0 0-15.41.71 20.013 20.013 0 0 0-10.391 11.395c-2.25 6.227-8.121 10.098-14.379 10.098-1.723 0-3.476-.297-5.191-.914-7.942-2.867-12.051-11.63-9.184-19.57 4.606-12.743 13.895-22.93 26.16-28.684 12.27-5.754 26.04-6.39 38.782-1.785 7.94 2.867 12.05 11.629 9.183 19.57-2.871 7.938-11.633 12.047-19.57 9.18zm51.324 99.914a95.432 95.432 0 0 1-32.504-5.715c-7.941-2.867-12.05-11.629-9.183-19.57 2.87-7.938 11.628-12.051 19.57-9.18 33.894 12.246 71.433-5.367 83.68-39.258 2.867-7.941 11.628-12.05 19.57-9.183 7.937 2.87 12.047 11.632 9.18 19.574-14.098 39.011-51.036 63.332-90.313 63.332zm0 0" fill="#ffd700" opacity="1" data-original="#000000"></path></g></svg>