<svg xmlns="http://www.w3.org/2000/svg" version="1.1" xmlns:xlink="http://www.w3.org/1999/xlink" width="512" height="512" x="0" y="0" viewBox="0 0 512 512" style="enable-background:new 0 0 512 512" xml:space="preserve"><g transform="matrix(0.7500000000000003,0,0,0.7500000000000003,63.99987864494324,63.999999999999915)"><path d="M501.567 213.084c-47.314-18.926-65.537-50.947-80.186-76.67-11.66-20.479-22.676-39.814-45.117-43.887-23.384-4.296-53.647 10.171-105.264 50.726V87.237C288.422 81.024 301 64.53 301 45c0-24.814-20.186-45-45-45s-45 20.186-45 45c0 19.53 12.578 36.024 30 42.237v56.005c-57.025-44.836-76.234-56.044-105.264-50.715-22.441 4.072-33.457 23.408-45.117 43.887-14.648 25.723-32.871 57.744-80.186 76.67-6.68 2.666-10.518 9.697-9.17 16.758C2.641 236.902 8.823 242 16 242h30c.645 0 65.391-.938 98.657-80.771 3.193-7.646 11.982-11.133 19.614-8.086 7.646 3.193 11.265 11.982 8.071 19.629-13.647 32.754-31.882 54.527-50.248 69.229h33.794C169.849 230.105 181 214.979 181 197c0-8.291 6.709-15 15-15s15 6.709 15 15c0 17.232-5.861 32.186-14.703 45H241v30h-45c-24.814 0-45 20.186-45 45s20.186 45 45 45h45v30h-15c-24.814 0-45 20.186-45 45s20.186 45 45 45h15v15c0 8.291 6.709 15 15 15s15-6.709 15-15v-15h15c8.291 0 15-6.709 15-15s-6.709-15-15-15h-15v-30h15c24.814 0 45-20.186 45-45s-20.186-45-45-45h-15v-30h45c16.959 0 31.578-9.542 39.247-23.432-8.417-5.437-16.935-11.833-24.705-19.312C329.408 266.408 323.461 272 316 272h-45v-30h44.703C306.862 229.186 301 214.232 301 197c0-8.291 6.709-15 15-15s15 6.709 15 15c0 17.979 11.151 33.105 25.111 45h33.794c-18.365-14.702-36.601-36.475-50.248-69.229-3.193-7.646.425-16.436 8.071-19.629 7.632-3.047 16.421.439 19.614 8.086C400.609 241.063 465.356 242 466 242h30c7.178 0 13.359-5.098 14.736-12.158 1.348-7.061-2.489-14.092-9.169-16.758zM241.001 452h-15c-8.262 0-15-6.738-15-15s6.738-15 15-15h15v30zm0-120h-45c-8.262 0-15-6.738-15-15s6.738-15 15-15h45v30zM286 362c8.262 0 15 6.738 15 15s-6.738 15-15 15h-15v-30h15z" fill="#ffd700" opacity="1" data-original="#000000"></path></g></svg>