<svg xmlns="http://www.w3.org/2000/svg" version="1.1" xmlns:xlink="http://www.w3.org/1999/xlink" width="512" height="512" x="0" y="0" viewBox="0 0 329.928 329.928" style="enable-background:new 0 0 512 512" xml:space="preserve"><g transform="matrix(0.7599999999999999,0,0,0.7599999999999999,39.59148193359378,39.591357421875)"><path d="M115.604 278.4c5.95 5.224 12.092 10.614 18.41 16.202l.131.115 21.018 18.155c2.816 2.433 6.311 3.649 9.806 3.649s6.991-1.217 9.807-3.649l21.014-18.155.13-.114c41.607-36.796 72.802-64.966 95.371-92.44 26.36-32.088 38.638-61.101 38.638-91.305 0-54.646-42.805-97.451-97.449-97.451-24.56 0-48.827 9.248-67.511 25.279-18.689-16.032-42.956-25.279-67.517-25.279C42.806 13.406 0 56.212 0 110.857 0 176.912 45.99 217.286 115.604 278.4zm-10.64-143.435h39.999V94.964h40.001v40.001h40v40h-40v39.999h-40.001v-39.999h-39.999v-40z" fill="#ffd700" opacity="1" data-original="#000000"></path></g></svg>