<svg xmlns="http://www.w3.org/2000/svg" version="1.1" xmlns:xlink="http://www.w3.org/1999/xlink" width="512" height="512" x="0" y="0" viewBox="0 0 100 100" style="enable-background:new 0 0 512 512" xml:space="preserve"><g transform="matrix(0.82,0,0,0.82,9.00008960723877,9.000000000000007)"><path d="M32.007 95c1.387 0 2.807-.008 4.258-.008h27.467c1.449 0 2.869.008 4.256.008 12.709 0 22.42-.65 22.42-13.936 0-13.906-10.635-25.322-24.217-26.563-.108 4.865-16.188 16.871-16.188 16.871S33.919 59.367 33.81 54.502C20.23 55.742 9.593 67.158 9.593 81.064 9.593 94.35 19.3 95 32.007 95zM62 76.857c0-.396.357-.715.801-.715h4.344V71.8c0-.44.317-.801.713-.801h4.287c.394 0 .713.358.713.801v4.343H77.2c.44 0 .8.319.8.715v4.285c0 .396-.357.715-.8.715h-4.343V86.2c0 .442-.32.8-.715.8h-4.285c-.396 0-.715-.357-.715-.8v-4.343H62.8c-.442 0-.801-.319-.801-.715z" fill="#ffd700" opacity="1" data-original="#000000"></path><path d="M50.008 57.992c12.284 0 22.241-18.471 22.241-30.754C72.249 14.957 62.292 5 50.008 5c-12.282 0-22.239 9.957-22.239 22.238 0 12.283 9.957 30.754 22.239 30.754z" fill="#ffd700" opacity="1" data-original="#000000"></path></g></svg>