<svg xmlns="http://www.w3.org/2000/svg" version="1.1" xmlns:xlink="http://www.w3.org/1999/xlink" width="512" height="512" x="0" y="0" viewBox="0 0 512 512" style="enable-background:new 0 0 512 512" xml:space="preserve"><g transform="matrix(0.7999999999999998,0,0,0.7999999999999998,51.200000000000045,51.20009765625002)"><path fill-rule="evenodd" d="M256 296.433c28.196 0 51.053 22.857 51.053 51.053S284.196 398.539 256 398.539s-51.053-22.857-51.053-51.053 22.857-51.053 51.053-51.053zm-86.822-7.917a73.808 73.808 0 0 0-11.004-26.551l10.355-10.355-20.628-20.629-10.355 10.355a73.796 73.796 0 0 0-26.552-11.005v-14.637H81.822v14.637a73.795 73.795 0 0 0-26.552 11.004L44.915 230.98l-20.628 20.63 10.355 10.355a73.814 73.814 0 0 0-11.005 26.552H9v29.173h14.636a73.795 73.795 0 0 0 11.004 26.552l-10.354 10.354 20.628 20.628 10.355-10.354a73.814 73.814 0 0 0 26.552 11.005v14.636h29.172v-14.637a73.789 73.789 0 0 0 26.552-11.005l10.354 10.354 20.628-20.628-10.355-10.355a73.787 73.787 0 0 0 11.004-26.552h14.638v-29.173h-14.636zm-72.771 60.039c-25.102 0-45.452-20.349-45.452-45.452 0-25.102 20.35-45.452 45.452-45.452 25.103 0 45.452 20.35 45.452 45.452 0 25.103-20.349 45.452-45.452 45.452zm319.185-101.187c-30.782 0-55.735 24.952-55.735 55.735 0 30.782 24.952 55.735 55.735 55.735s55.735-24.952 55.735-55.735-24.952-55.735-55.735-55.735zm8 90.058v1.938a8 8 0 0 1-16 0v-1.605c-4.911-1.253-9.341-4.229-12.315-8.341a7.989 7.989 0 0 1 12.937-9.375c1.12 1.548 2.69 2.374 4.604 2.374h4.299c3.095 0 5.657-2.562 5.657-5.657s-2.562-5.657-5.657-5.657h-3.053c-11.928 0-21.657-9.73-21.657-21.658 0-9.465 6.198-17.838 15.184-20.666v-1.938a8 8 0 0 1 16 0v1.605c4.911 1.253 9.341 4.229 12.315 8.341a7.99 7.99 0 0 1-12.937 9.375c-1.119-1.548-2.69-2.374-4.604-2.374h-4.299c-3.095 0-5.657 2.562-5.657 5.657s2.562 5.658 5.657 5.658h3.053c11.927 0 21.657 9.73 21.657 21.657 0 9.464-6.198 17.839-15.184 20.666zm-8-121.731c-48.274 0-87.408 39.134-87.408 87.408s39.134 87.408 87.408 87.408S503 351.377 503 303.103s-39.134-87.408-87.408-87.408zm0 159.142c-39.616 0-71.735-32.118-71.735-71.735s32.118-71.735 71.735-71.735 71.735 32.118 71.735 71.735-32.119 71.735-71.735 71.735zM368.429 52.285a7.966 7.966 0 0 1-7.937-13.813l22.438-12.954a7.966 7.966 0 0 1 7.937 13.813zM143.144 163.941a7.981 7.981 0 0 1 8 13.812l-22.438 12.955a7.981 7.981 0 0 1-8-13.812zm-12.809-63.828a8 8 0 0 1 0 16h-25.909a8 8 0 0 1 0-16zm20.778-61.64a7.967 7.967 0 0 1-7.937 13.813l-22.438-12.954a7.967 7.967 0 0 1 7.937-13.813zm209.348 139.28a7.981 7.981 0 0 1 8-13.812l22.438 12.955a7.981 7.981 0 0 1-8 13.812zm21.205-61.534a8 8 0 0 1 0-16h25.909a8 8 0 0 1 0 16zm-98.42 142.068v.025c0 11.153-9.107 20.261-20.26 20.261h-14.368c-11.153 0-20.26-9.102-20.26-20.261zM255.802 9c-55.177 0-99.905 44.729-99.905 99.904 0 36.518 19.591 68.461 48.837 85.886 6.305 3.757 9.891 10.062 9.891 17.404v6.326h21.653v-71.126c-6.917-1.599-13.189-4.015-18.455-7.041-11.215-6.446-18.177-15.782-18.177-26.453 0-14.49 11.826-26.316 26.316-26.316s26.316 11.826 26.316 26.316v19.596c2.348.107 4.701.107 7.049 0V113.9c0-14.49 11.826-26.316 26.316-26.316s26.315 11.826 26.315 26.316c0 10.671-6.962 20.007-18.177 26.453-5.266 3.027-11.538 5.443-18.455 7.041v71.126h21.654v-6.326c0-7.34 3.586-13.647 9.891-17.404 29.246-17.425 48.837-49.368 48.837-85.886C355.707 53.73 310.979 9 255.802 9zm41.178 225.52v2.034c0 7.564-6.169 13.733-13.733 13.733h-54.889c-7.564 0-13.733-6.169-13.733-13.733v-2.034zm-37.654-16h-7.049v-69.012c2.349.091 4.7.091 7.049 0zm-23.049-87.599c-3.925-1.146-7.471-2.629-10.517-4.38-6.241-3.587-10.115-8.089-10.115-12.64 0-5.658 4.658-10.316 10.316-10.316s10.316 4.658 10.316 10.316zm39.049 0v-17.02c0-5.658 4.658-10.316 10.316-10.316s10.316 4.658 10.316 10.316c0 4.551-3.874 9.053-10.115 12.64-3.046 1.751-6.592 3.234-10.517 4.38zm74.833 364.52c-3.883-48.455-44.749-86.902-94.16-86.902-49.41 0-90.276 38.447-94.159 86.902-.162 2.02.461 3.818 1.835 5.307s3.118 2.253 5.144 2.253H343.18c2.026 0 3.77-.764 5.144-2.253s1.997-3.288 1.835-5.307z" clip-rule="evenodd" fill="#ffd700" opacity="1" data-original="#000000"></path></g></svg>