<svg xmlns="http://www.w3.org/2000/svg" version="1.1" xmlns:xlink="http://www.w3.org/1999/xlink" width="512" height="512" x="0" y="0" viewBox="0 0 512 512" style="enable-background:new 0 0 512 512" xml:space="preserve"><g transform="matrix(1.1900000000000002,0,0,1.1900000000000002,-48.63999855041516,-48.639997100830044)"><path d="M303.3 320.8c0 11.1-7.1 17.9-19.3 25.2-11.4 6.5-26.1 11.1-45.1 11.1-50.5 0-100.7-41.4-100.7-101.3S189 154.6 238.3 154.6c19.3 0 34.6 4.8 46 11.1 11.3 7.4 19 14.5 19 25.2 0 12.2-9.7 19-19.9 19-7.9 0-13.3-4-16.4-6-3.1-1.7-12.5-9.1-28.1-9.1-30.4 0-55.9 27-55.9 61s25.3 61 56.5 61c15 0 24.4-7.4 27.5-9.1 3.1-2 8.2-6 16.4-6 10.3.1 19.9 7 19.9 19.1zm70.5-143.2v158c0 11.6-9.9 21.8-21.6 21.8-11.6 0-21.9-10.2-21.9-21.8v-158c0-11.6 9.9-21.8 21.9-21.8 12-.1 21.6 10.1 21.6 21.8z" fill="#ffd700" opacity="1" data-original="#000000"></path></g></svg>