<svg xmlns="http://www.w3.org/2000/svg" version="1.1" xmlns:xlink="http://www.w3.org/1999/xlink" width="512" height="512" x="0" y="0" viewBox="0 0 4000 4000" style="enable-background:new 0 0 512 512" xml:space="preserve" class=""><g><path d="m1902.259 2096.369-452.645-452.647c-21.455-21.453-21.455-56.24 0-77.697 21.453-21.453 56.244-21.453 77.697 0l454.245 454.245c-28.704-580.483-509.961-1043.914-1097.44-1043.914v24.174c0 578.755 449.779 1054.396 1018.143 1095.839zM2654.383 1511.084c21.453-21.453 56.244-21.453 77.697 0 21.456 21.457 21.456 56.244 0 77.697l-510.557 510.561h87.125c605.887 0 1098.812-492.925 1098.812-1098.812V808.239h-164.822c-605.887 0-1098.812 492.925-1098.812 1098.812v114.595z" fill="#ffd700" opacity="1" data-original="#000000"></path><path d="m3226.546 1985.138-494.111 494.113c-32.985 90.294-115.036 158.261-218.289 179.707l-657.11 191.656c-29.666 8.66-60.767-8.863-68.577-38.999-7.546-29.118 11.15-58.711 40.027-67.133l657.071-191.646 4.883-1.186c83.734-16.849 128.153-72.649 141.804-119.288 11.307-38.634 3.842-75.394-19.969-98.342-40.674-39.197-124.91-41.395-231.125-6.026a56.798 56.798 0 0 1-7.437 1.94l-439.525 82.411a54.959 54.959 0 0 1-48.974-15.153c-324.468-324.462-716.673-304.434-1076.055 54.941a54.938 54.938 0 0 1-38.849 16.096H536.825c-22.763 0-41.217 18.453-41.217 41.217v521.911c0 22.763 18.453 41.217 41.217 41.217h343.368c4.398 0 8.81.538 13.083 1.581 845.833 206.465 1413.462 174.759 1735.246-96.978l795.031-795.033c34.657-34.654 48.804-84.362 36.342-134.366a124.298 124.298 0 0 0-13.003-32.12c-48.261-83.419-157.269-93.592-220.346-30.52z" fill="#ffd700" opacity="1" data-original="#000000"></path></g></svg>