<svg xmlns="http://www.w3.org/2000/svg" version="1.1" xmlns:xlink="http://www.w3.org/1999/xlink" width="512" height="512" x="0" y="0" viewBox="0 0 64 64" style="enable-background:new 0 0 512 512" xml:space="preserve" class=""><g transform="matrix(0.7,0,0,0.7,9.585000228881853,9.615000057220474)"><path d="M41.7 34.6c-.5 0-1 .4-1 1 0 5.9 5.2 10.6 11.6 10.6s11.6-4.8 11.6-10.6c0-.5-.4-1-1-1h-2L53.4 13h3.9c1.2 0 2.2-1 2.2-2.2s-1-2.2-2.2-2.2h-23l-.2-5.3c0-1.1-1-2-2.1-2-1.2 0-2.1.9-2.1 2.1l-.2 5.3h-23c-1.2 0-2.2 1-2.2 2.2s1 2.2 2.2 2.2h3.8L3 34.6H1c-.5 0-1 .4-1 1 0 5.9 5.2 10.6 11.6 10.6s11.6-4.8 11.6-10.6c0-.5-.4-1-1-1h-2L12.7 13h16.9l-1.2 40.2h-8.3L17.7 58H14l-2.8 4.8h41.7L50.1 58h-3.7L44 53.2h-8.3L34.4 13h16.9l-7.6 21.6zm-23.5 0H5l6.6-18.7zm34.2-18.7L59 34.6H45.8z" fill="#ffd700" opacity="1" data-original="#000000"></path></g></svg>