<svg xmlns="http://www.w3.org/2000/svg" version="1.1" xmlns:xlink="http://www.w3.org/1999/xlink" width="512" height="512" x="0" y="0" viewBox="0 0 511.65 511.65" style="enable-background:new 0 0 512 512" xml:space="preserve"><g transform="matrix(0.7999999999999999,0,0,0.7999999999999999,51.16499633789064,51.16512591465144)"><path d="M30.825 240.65v15a15.012 15.012 0 0 0 10.884 14.429c4.365 1.245 108.237 30.571 214.116 30.571s209.751-29.326 214.116-30.571a15.013 15.013 0 0 0 10.884-14.429v-15c0-8.291-6.709-15-15-15h-420c-8.291 0-15 6.709-15 15zM435.825 360.65c8.291 0 15-6.709 15-15v-39.763c-21.301 5.028-53.361 11.754-90.727 16.957-3.776 54.485-48.845 97.806-104.273 97.806s-100.497-43.321-104.273-97.806c-37.374-5.204-69.43-11.933-90.727-16.959v39.765c0 8.291 6.709 15 15 15h21.27c3.486 12.261 8.423 24.082 14.766 35.332l-15.132 15.132c-5.859 5.859-5.859 15.352 0 21.211l42.422 42.422c5.859 5.859 15.352 5.859 21.211 0l15.132-15.132c11.25 6.343 23.071 11.279 35.332 14.766v22.27c0 8.291 6.709 15 15 15h60c8.291 0 15-6.709 15-15v-22.27c12.261-3.486 24.082-8.423 35.332-14.766l15.132 15.132c5.859 5.859 15.352 5.859 21.211 0l42.422-42.422c5.859-5.859 5.859-15.352 0-21.211l-15.132-15.132c6.343-11.25 11.279-23.071 14.766-35.332zM231.992 164.317c-7.555 3.419-16.454.035-19.834-7.5L165.332 51.991C111.796 80.162 73.349 133.619 63.718 195.65h384.214c-9.631-62.031-48.078-115.489-101.614-143.659l-46.826 104.826c-3.382 7.54-12.286 10.915-19.834 7.5-7.544-3.398-10.913-12.275-7.5-19.834L323.99 28.54c3.726-8.264-.562-18.342-9.311-20.713a225.184 225.184 0 0 0-117.713.002c-8.749 2.371-13.037 12.449-9.311 20.713l51.837 115.941c3.413 7.559.059 16.436-7.5 19.834z" fill="#ffd700" opacity="1" data-original="#000000"></path></g></svg>